<mxfile host="65bd71144e">
    <diagram id="baeHmNRg7QrXfmxBdHxk" name="Page-1">
        <mxGraphModel dx="1538" dy="1060" grid="1" gridSize="12" guides="1" tooltips="1" connect="1" arrows="1" fold="1" page="0" pageScale="1" pageWidth="1600" pageHeight="1200" background="#2a252f" math="1" shadow="1">
            <root>
                <mxCell id="0"/>
                <mxCell id="1" parent="0"/>
                <mxCell id="4" value="" style="edgeStyle=none;html=1;exitX=0;exitY=1;exitDx=0;exitDy=0;entryX=0.5;entryY=0;entryDx=0;entryDy=0;fillColor=none;sketch=1;curveFitting=1;jiggle=2;" edge="1" parent="1" source="2" target="3">
                    <mxGeometry relative="1" as="geometry"/>
                </mxCell>
                <mxCell id="8" value="" style="edgeStyle=none;html=1;exitX=1;exitY=1;exitDx=0;exitDy=0;entryX=0.5;entryY=0;entryDx=0;entryDy=0;fillColor=none;sketch=1;curveFitting=1;jiggle=2;" edge="1" parent="1" source="2" target="7">
                    <mxGeometry relative="1" as="geometry"/>
                </mxCell>
                <mxCell id="3" value="&lt;font face=&quot;Times New Roman&quot; style=&quot;font-size: 24px;&quot;&gt;Global&lt;/font&gt;" style="rounded=1;whiteSpace=wrap;html=1;arcSize=32;fillColor=none;sketch=1;curveFitting=1;jiggle=2;" vertex="1" parent="1">
                    <mxGeometry y="310" width="120" height="60" as="geometry"/>
                </mxCell>
                <mxCell id="13" value="" style="edgeStyle=none;html=1;fontFamily=Times New Roman;fontSize=24;entryX=0.5;entryY=0;entryDx=0;entryDy=0;fillColor=none;sketch=1;curveFitting=1;jiggle=2;" edge="1" parent="1" source="7" target="36">
                    <mxGeometry relative="1" as="geometry">
                        <mxPoint x="367.6923076923076" y="440" as="targetPoint"/>
                    </mxGeometry>
                </mxCell>
                <mxCell id="15" value="" style="edgeStyle=none;html=1;fontFamily=Times New Roman;fontSize=24;entryX=0.5;entryY=0;entryDx=0;entryDy=0;fillColor=none;sketch=1;curveFitting=1;jiggle=2;" edge="1" parent="1" source="7" target="43">
                    <mxGeometry relative="1" as="geometry">
                        <mxPoint x="670" y="530" as="targetPoint"/>
                    </mxGeometry>
                </mxCell>
                <mxCell id="7" value="&lt;font style=&quot;font-size: 24px;&quot; face=&quot;Times New Roman&quot;&gt;Local&lt;/font&gt;" style="whiteSpace=wrap;html=1;rounded=1;arcSize=31;fillColor=none;sketch=1;curveFitting=1;jiggle=2;" vertex="1" parent="1">
                    <mxGeometry x="400" y="310" width="120" height="60" as="geometry"/>
                </mxCell>
                <mxCell id="2" value="&lt;font style=&quot;font-size: 24px;&quot; face=&quot;Times New Roman&quot;&gt;Scopes&lt;/font&gt;" style="rounded=1;whiteSpace=wrap;html=1;fillColor=none;sketch=1;curveFitting=1;jiggle=2;" vertex="1" parent="1">
                    <mxGeometry x="200" y="130" width="120" height="60" as="geometry"/>
                </mxCell>
                <mxCell id="36" value="Blocks" style="swimlane;fontFamily=Times New Roman;fontSize=24;fillColor=none;sketch=1;curveFitting=1;jiggle=2;" vertex="1" parent="1">
                    <mxGeometry x="100" y="500" width="260" height="350" as="geometry"/>
                </mxCell>
                <mxCell id="41" value="&lt;br&gt;&lt;div style=&quot;text-align: justify;&quot;&gt;-variables declared using let const cannot accessed outside block scope but variables declared usinng var can be accessed outside the block scope&amp;nbsp;&lt;/div&gt;&lt;div style=&quot;text-align: justify;&quot;&gt;&lt;br&gt;&lt;/div&gt;" style="text;html=1;fillColor=none;align=center;verticalAlign=middle;whiteSpace=wrap;rounded=0;fontFamily=Times New Roman;fontSize=24;sketch=1;curveFitting=1;jiggle=2;" vertex="1" parent="36">
                    <mxGeometry x="20" y="-95" width="210" height="540" as="geometry"/>
                </mxCell>
                <mxCell id="43" value="Functions" style="swimlane;fontFamily=Times New Roman;fontSize=24;fillColor=none;sketch=1;curveFitting=1;jiggle=2;" vertex="1" parent="1">
                    <mxGeometry x="530" y="520" width="260" height="340" as="geometry"/>
                </mxCell>
                <mxCell id="44" value="&lt;br&gt;&lt;div style=&quot;text-align: justify;&quot;&gt;-variables declared using var, let const cannot accessed outside function scope .&lt;/div&gt;&lt;div style=&quot;text-align: justify;&quot;&gt;&lt;br&gt;&lt;/div&gt;" style="text;html=1;fillColor=none;align=center;verticalAlign=middle;whiteSpace=wrap;rounded=0;fontFamily=Times New Roman;fontSize=24;sketch=1;curveFitting=1;jiggle=2;" vertex="1" parent="43">
                    <mxGeometry x="20" y="-100" width="210" height="540" as="geometry"/>
                </mxCell>
            </root>
        </mxGraphModel>
    </diagram>
</mxfile>